<svg width="65" height="71" viewBox="0 0 65 71" fill="none" xmlns="http://www.w3.org/2000/svg">
<path d="M29.7861 19.207H27.0957V22.1616H29.7861V19.207ZM32.4765 19.207H35.167V22.1616H32.4765V19.207ZM40.5478 19.207H37.8574V22.1616H40.5478V19.207ZM27.0957 25.1162H29.7861V28.0708H27.0957V25.1162ZM35.167 25.1162H32.4765V28.0708H35.167V25.1162ZM37.8574 25.1162H40.5478V28.0708H37.8574V25.1162ZM29.7861 31.0254H27.0957V33.9799H29.7861V31.0254ZM32.4765 31.0254H35.167V33.9799H32.4765V31.0254ZM40.5478 31.0254H37.8574V33.9799H40.5478V31.0254ZM27.0957 36.9345H29.7861V39.8891H27.0957V36.9345ZM35.167 36.9345H32.4765V39.8891H35.167V36.9345ZM27.0957 42.8437H29.7861V45.7983H27.0957V42.8437ZM35.167 42.8437H32.4765V45.7983H35.167V42.8437ZM27.0957 48.7529H29.7861V51.7075H27.0957V48.7529ZM35.167 48.7529H32.4765V51.7075H35.167V48.7529ZM27.0957 54.662H29.7861V57.6166H27.0957V54.662ZM35.167 54.662H32.4765V57.6166H35.167V54.662ZM41.893 44.321H45.9286V41.3664H41.893V44.321ZM45.9286 50.2302H41.893V47.2756H45.9286V50.2302ZM41.893 56.1393H45.9286V53.1847H41.893V56.1393Z" fill="#FF4311"/>
<path fill-rule="evenodd" clip-rule="evenodd" d="M23.06 5.91113L44.5833 14.7749V35.457H49.9642C50.3209 35.457 50.6631 35.6126 50.9154 35.8897C51.1676 36.1667 51.3094 36.5425 51.3094 36.9343V62.0482H52.6546C53.0114 62.0482 53.3535 62.2039 53.6058 62.4809C53.8581 62.758 53.9998 63.1337 53.9998 63.5255C53.9998 63.9173 53.8581 64.2931 53.6058 64.5701C53.3535 64.8472 53.0114 65.0028 52.6546 65.0028H12.2983C11.9416 65.0028 11.5994 64.8472 11.3471 64.5701C11.0949 64.2931 10.9531 63.9173 10.9531 63.5255C10.9531 63.1337 11.0949 62.758 11.3471 62.4809C11.5994 62.2039 11.9416 62.0482 12.2983 62.0482H13.6435V31.0251C13.6435 30.6333 13.7853 30.2575 14.0375 29.9805C14.2898 29.7034 14.632 29.5478 14.9887 29.5478H17.6792V19.2068H20.3696V29.5478H23.06V5.91113ZM25.7504 10.1746L41.8929 16.8224V35.457H37.8573C37.5005 35.457 37.1584 35.6126 36.9061 35.8897C36.6538 36.1667 36.5121 36.5425 36.5121 36.9343V62.0482H25.7504V10.1746ZM16.334 32.5024V62.0482H23.06V32.5024H16.334ZM48.619 62.0482H45.9285V59.0936H41.8929V62.0482H39.2025V38.4116H48.619V62.0482Z" fill="#FF4311"/>
</svg>
