<svg width="39" height="55" viewBox="0 0 39 55" fill="none" xmlns="http://www.w3.org/2000/svg">
<path d="M13.615 30.5479L15.7109 22.925L10.1955 18.4784H17.0884L19.1977 10.7758L21.3096 18.4784H28.1998L22.6683 22.9221L24.7668 30.5479L19.1977 25.8146L13.615 30.5479ZM5.74558 54.7311V35.2604C4.04165 33.4187 2.71886 31.2619 1.77722 28.7899C0.835569 26.3238 0.364746 23.6824 0.364746 20.8657C0.364746 15.1003 2.19064 10.2124 5.84243 6.20208C9.49423 2.19173 13.946 0.185565 19.1977 0.183595C24.4494 0.181625 28.9011 2.1868 32.5529 6.19913C36.2047 10.2115 38.0306 15.1003 38.0306 20.8657C38.0306 23.6804 37.5598 26.3228 36.6181 28.7928C35.6765 31.2629 34.3537 33.4168 32.6497 35.2545V54.7252L19.1977 50.2933L5.74558 54.7311ZM19.1977 38.5932C23.6817 38.5932 27.4931 36.8697 30.6319 33.4227C33.7708 29.9756 35.3402 25.79 35.3402 20.8657C35.3402 15.9414 33.7708 11.7557 30.6319 8.3087C27.4931 4.86169 23.6817 3.13818 19.1977 3.13818C14.7136 3.13818 10.9022 4.86169 7.76339 8.3087C4.62457 11.7557 3.05516 15.9414 3.05516 20.8657C3.05516 25.79 4.62457 29.9756 7.76339 33.4227C10.9022 36.8697 14.7136 38.5932 19.1977 38.5932ZM8.436 50.5415L19.1977 47.2294L29.9593 50.5415V37.7482C28.4599 38.9595 26.7927 39.8952 24.9578 40.555C23.1266 41.2169 21.2065 41.5478 19.1977 41.5478C17.1888 41.5478 15.2688 41.2178 13.4375 40.558C11.6062 39.8981 9.93904 38.9615 8.436 37.7482V50.5415Z" fill="#FF4311"/>
</svg>
